<svg width="798" height="375" viewBox="0 0 798 375" fill="none" xmlns="http://www.w3.org/2000/svg">
<path d="M498.293 25.4202C501.982 26.2788 503.714 22.1193 501.273 19.7774C500.702 19.2318 498.776 19.0181 497.983 17.7438C497.021 16.212 497.155 14.1666 494.84 14.6094C494.817 14.7913 494.869 15.0523 494.682 15.0771C494.465 18.5032 499.46 19.3653 499.389 22.1276C499.355 23.5755 497.821 23.7302 498.293 25.4202ZM564.52 6.14641C562.793 6.14641 562.142 6.82668 561.07 7.40064C560.478 7.71242 559.277 7.88723 559.658 8.80958C561.165 8.62653 564.161 7.94624 564.52 6.14641ZM605.639 60.5181C606.261 58.5234 605.294 56.5087 604.069 55.1919C602.257 55.5036 603.565 57.3838 603.442 58.4833C603.265 60.0387 601.611 61.1192 601.714 62.7136C601.112 63.4175 600.083 63.695 599.992 64.9055C600.989 65.5952 601.426 64.3634 602.187 63.6513C603.388 62.5282 605.224 61.8633 605.639 60.5181ZM436.455 113.952C436.543 112.27 435.814 111.003 435.671 108.626C432.773 106.88 430.608 110.244 427.669 109.877C425.861 109.651 424.565 107.549 422.648 107.843C421.589 108.001 421.066 109.365 419.976 109.564C417.733 109.975 416.711 107.771 414.329 108.626C410.968 106.069 409.466 101.907 408.677 97.1856C406.847 94.7882 404.053 96.7391 402.714 98.2815C401.89 98.2744 400.859 97.8269 400.677 98.7528C400.059 101.65 404.778 101.958 404.754 103.924C404.739 105.202 402.912 105.084 402.088 105.959C401.212 106.889 401.794 107.715 400.677 108.309C397.582 108.681 396.555 106.991 396.594 104.237C395.258 102.211 393.57 100.736 392.358 99.0657C391.91 98.4481 391.24 97.4868 391.102 96.5573C390.991 95.8251 391.451 94.8957 391.26 94.0524C390.92 92.5573 388.129 91.4294 386.393 90.6063C384.539 89.7229 382.216 88.8891 380.901 87.7849C379.969 87.0007 379.53 85.6402 378.704 85.1218C378.003 84.6824 377.132 84.7734 376.505 84.3388C375.645 83.7365 375.789 82.735 374.623 82.4551C374.032 82.2378 373.121 83.0408 372.74 83.5546C371.975 86.9735 374.762 87.2074 376.033 88.7226C376.91 89.763 377.345 91.3302 378.233 92.014C379.18 92.7462 380.468 92.6116 381.685 93.1099C382.526 93.4548 383.073 94.5 383.88 94.9901C385.379 95.9007 387.785 96.0589 387.964 97.8115C387.032 98.4445 384.919 96.8892 384.197 98.4398C384.012 99.4578 385.007 99.9798 384.983 100.945C384.943 102.488 383.226 104.178 381.685 103.924C381.53 103.007 382.506 102.256 382.47 101.259C382.403 99.2641 378.387 96.2207 376.352 95.3066C375.396 94.8755 374.234 94.852 373.366 94.3654C371.825 93.4985 369.127 91.3692 368.187 90.135C367.065 88.6505 366.107 85.9047 363.637 86.0595C362.63 86.1232 361.798 87.0444 360.97 87.4719C360.217 87.8557 359.385 88.2124 358.616 88.7226C357.7 89.3284 356.955 89.9414 356.103 89.9768C354.133 90.0595 352.46 88.5171 350.769 88.8809C350.197 89.0037 349.723 89.5138 349.04 90.135C349.017 91.0491 349.315 91.6349 349.199 92.6399C348.688 93.5221 347.17 93.4667 346.061 94.0524C344.436 94.9075 342.989 96.6636 341.665 97.9698C340.814 98.8083 340.045 99.5004 339.937 100.162C339.854 100.68 340.377 101.662 340.254 102.358C340.116 103.114 338.693 104.68 337.742 105.333C337.187 105.714 336.45 105.766 335.859 106.116C334.622 106.848 334.068 107.803 333.034 107.996C330.291 108.507 325.305 107.446 325.344 110.347C325.369 112.286 327.989 112.294 329.581 112.227C331.8 112.139 333.688 112.698 334.916 112.385C335.764 112.171 336.691 111.222 337.583 110.818C338.146 110.565 338.728 110.56 339.153 110.347C340.092 109.877 340.623 109.112 341.352 108.779C342.787 108.126 345.458 107.616 347 107.526C349.116 107.402 351.327 107.744 354.062 107.526C355.036 107.451 356 106.825 357.046 106.742C358.754 106.608 361.002 107.415 362.381 107.37C363.337 107.34 364.402 106.414 365.519 106.429C366.783 106.449 368.115 107.348 368.345 108.155C368.476 108.614 368.08 109.345 368.187 110.035C368.368 111.173 369.348 111.644 369.289 112.385C369.205 113.366 366.756 114.675 367.089 115.831C367.307 116.575 369.063 117.351 369.914 117.868C370.806 118.412 372.312 119.163 373.366 119.277C374.254 119.376 375.039 119.032 375.88 119.124C377.23 119.27 379.419 120.089 380.274 120.69C381.749 121.727 381.542 123.388 383.255 123.978C383.983 124.231 385.299 124.089 386.234 124.295C388.522 124.789 390.218 126.681 391.886 126.487C394.514 126.182 393.317 123.709 393.614 121.945C394.284 117.944 402.111 118.126 403.657 120.844C404.803 121.149 405.805 120.892 407.108 121.316C407.862 121.561 408.424 122.383 409.149 122.57C409.696 122.708 410.493 122.491 411.19 122.57C414.198 122.91 416.925 125.146 419.509 124.762C421.149 124.52 422.338 122.981 423.9 122.883C426.904 122.696 428.826 125.114 432.064 123.978C434.447 123.144 433.916 120.679 434.732 118.181C435.298 116.444 436.391 115.261 436.455 113.952ZM446.501 95.4602C450.755 94.6937 448.813 91.1046 446.656 89.8221C445.023 88.8489 443.07 88.0022 441.164 86.8424C440.058 86.1705 435.857 84.8997 435.829 83.5546C435.798 82.0831 438.956 81.6 437.711 79.0089C435.563 78.4869 430.455 79.3089 430.808 81.6721C431.01 83.0361 432.631 82.2803 433.004 83.7093C431.466 84.2549 429.595 85.6874 427.981 85.4347C426.059 85.1336 425.565 82.7751 424.531 81.3579C423.037 81.4063 422.054 79.9136 420.293 80.1049C418.447 80.3057 417.468 82.9806 416.525 84.3388C416.025 85.0509 415.229 85.4182 414.954 86.0595C414.792 86.4468 414.971 87.0645 414.801 87.6266C414.261 89.3674 412.752 90.004 412.914 91.544C413.061 92.9009 414.539 93.5103 414.643 94.6771C414.539 95.8806 412.604 95.2547 412.759 96.7155C415.568 99.0303 415.723 95.6231 417.154 95.1484C418.304 94.7645 420.559 95.4649 422.017 95.1484C423.194 94.8909 424.121 93.7713 425.47 93.2694C426.293 92.96 427.313 92.6872 428.454 92.6399C433.447 92.4332 436.669 95.6786 441.009 95.7731C442.443 95.805 445.012 95.7294 446.501 95.4602ZM483.384 106.742C484.167 101.308 479.928 100.902 479.146 97.0285C479.507 97.0757 479.32 96.5762 479.618 96.5573C480.648 96.0625 482.207 97.3486 482.753 96.0908C482.764 94.2343 480.406 92.8501 478.043 93.7394C477.363 93.2729 477.272 92.216 477.104 91.231C475.326 90.1752 470.923 87.864 470.983 85.7465C471.034 84.0057 473.285 83.0278 475.849 83.0833C476.932 82.2649 476.234 79.7482 475.222 79.166C471.164 78.2803 469.002 78.8778 466.433 80.7332C465.2 81.6236 463.826 82.2378 463.135 82.7716C462.501 83.2617 461.653 84.6033 461.725 85.2765C461.824 86.2461 463.215 86.8153 463.766 88.0978C464.047 88.758 463.986 89.5847 464.237 90.135C464.923 91.6467 466.679 92.6246 468.002 93.8941C468.938 94.7929 471.56 96.7391 471.612 97.8115C471.661 98.7055 470.808 98.9039 470.518 99.8487C470.221 100.776 469.881 102.963 470.047 103.766C470.392 105.488 472.175 105.547 473.808 106.274C475.429 106.996 476.991 108.269 478.674 108.309C480.471 108.357 482.381 107.783 483.384 106.742ZM494.999 86.5306C497.543 86.0394 495.027 81.9803 493.112 82.4551C490.613 83.0798 493.263 86.8625 494.999 86.5306ZM531.562 80.1049C530.973 78.9215 529.277 80.4521 529.997 81.5174C531.06 81.5847 531.44 80.9706 531.562 80.1049ZM424.531 235.705C425.153 234.554 423.54 233.802 423.275 232.569C422.965 231.123 423.626 229.426 422.331 228.65C422.177 228.65 422.017 228.65 421.863 228.65C420.726 231.218 422.334 235.455 424.531 235.705ZM434.101 219.561C434.632 218.477 435.877 217.33 435.671 215.96C435.218 212.942 429.563 214.429 428.926 216.586C428.492 218.038 429.183 219.189 428.608 220.661C429.226 221.82 430.776 222.05 432.69 221.913C433.749 221.448 433.618 220.558 434.101 219.561ZM436.3 252.312C437.027 251.161 437.937 247.924 436.3 247.14C436.194 247.14 436.091 247.14 435.988 247.14C435.287 248.442 434.541 251.585 436.3 252.312ZM349.512 196.215C344.99 195.554 340.365 197.375 337.27 198.719C335.482 199.5 333.663 200.687 332.09 200.757C330.601 200.829 329.134 199.967 327.699 199.82C325.828 199.626 323.43 199.806 321.576 200.133C319.773 200.453 318.144 201.739 316.554 201.853C313.511 202.084 310.617 199.116 308.707 197.624C307.538 196.715 306.35 195.97 305.256 195.119C304.082 194.202 302.561 193.647 301.645 192.768C300.408 191.574 300.408 189.497 299.762 187.909C298.998 186.042 296.671 184.669 294.896 182.896C293.568 181.571 290.521 179.589 290.188 177.884C290.021 177.012 290.561 176.007 290.5 175.063C290.418 173.689 289.383 172.91 289.403 171.928C289.435 170.551 291.059 169.486 291.443 168.323C291.642 167.73 291.547 166.891 291.757 166.131C292.197 164.54 293.252 163.599 293.013 161.272C292.918 160.346 292.122 159.499 292.07 158.297C292.038 157.473 292.613 157.015 292.542 156.259C292.423 154.921 290.683 154.66 290.5 153.124C290.318 151.538 292.019 150.229 293.013 148.424C293.461 147.616 293.707 146.377 294.111 145.761C294.991 144.428 296.425 143.783 297.095 142.468C297.587 141.499 297.746 140.063 298.194 139.335C298.772 138.401 299.921 137.899 301.02 136.672C301.91 135.672 302.275 134.46 302.902 134.009C303.689 133.44 304.868 133.3 305.728 132.913C308.633 131.591 310.756 129.89 312.16 127.112C311.732 124.592 312.376 123.528 313.416 121.787C314.374 120.176 315.077 118.637 316.713 117.71C318.675 116.602 320.518 116.5 321.889 114.422C322.574 113.382 323.605 111.585 323.617 110.505C323.633 108.954 322.024 106.968 320.636 106.742C319.218 106.517 317.038 107.818 316.242 106.274C315.988 105.781 316.337 104.625 316.242 104.079C316.06 103.054 315.18 102.33 315.144 101.574C315.069 100.103 316.593 98.5709 317.026 96.8738C317.613 94.5626 317.046 92.7946 316.868 90.135C319.063 86.6806 323.938 88.3943 328.797 88.7226C329.526 88.7734 330.362 88.5478 331.151 88.5679C334.032 88.6352 336.3 89.502 337.27 87.0007C337.635 86.0594 337.959 82.5578 337.742 81.6721C337.484 80.6222 335.423 77.9035 334.444 77.287C332.887 76.2973 330.628 76.7284 329.736 74.9369C330.461 71.8427 333.933 74.4184 336.014 73.6826C337.076 73.3071 336.956 71.4707 337.9 71.1742C338.543 70.9723 339.362 71.819 340.254 71.8025C341.015 71.7872 343.77 70.4054 344.491 69.9189C345.493 69.2421 345.802 67.8379 346.687 67.2557C347.285 66.8648 348.074 66.912 348.728 66.6309C350.062 66.057 351.752 64.8902 352.651 63.8096C353.947 62.2589 354.53 60.3351 356.103 60.0505C358.208 59.6667 362.967 60.4662 363.323 58.1668C363.661 55.9784 361.394 54.2577 362.226 51.8993C362.883 50.0357 364.56 50.3639 366.935 49.2361C368.08 50.0474 367.747 52.3669 367.874 53.7829C369.332 53.7947 372.3 53.3519 372.582 52.0575C372.934 50.4431 370.457 48.8015 369.914 47.8272C369.328 46.7714 369.201 44.916 368.031 44.694C365.642 44.2346 363.32 47.9819 360.339 47.9819C358.383 47.9819 356.306 46.4749 355.79 45.0058C355.496 44.1673 355.763 43.376 355.631 42.4986C355.441 41.216 354.672 39.8862 355.006 38.1135C356.206 36.0563 358.976 35.7244 360.97 34.6639C361.723 34.2635 362.329 33.4096 363.165 33.0967C364.573 32.5782 366.653 33.1002 368.031 32.3125C368.904 31.8188 368.658 30.9638 369.289 29.9623C369.68 29.3329 370.64 28.9656 371.171 28.2416C371.54 27.7385 371.583 26.9791 371.956 26.5162C373.319 24.8226 375.807 24.1979 376.819 22.4441C377.266 21.6694 376.045 21.3801 376.352 20.2487C376.858 19.1562 378.815 19.9593 379.957 19.7774C381.519 19.5365 382.961 17.641 384.665 17.2725C386.445 16.8887 388.351 17.1226 390.004 16.4896C390.991 16.1093 391.899 15.2153 392.83 15.0771C393.159 15.0299 394.086 15.2554 394.553 15.2353C395.152 15.2117 395.798 14.8433 396.594 14.7641C397.748 14.6496 399.178 15.0452 400.677 15.0771C403.158 15.1326 405.515 14.333 407.58 15.2353C408.661 15.7054 408.54 16.9289 409.933 17.4273C410.636 17.68 411.562 17.3281 412.602 17.4273C414.138 17.5737 415.743 18.6342 417.781 18.8397C418.506 18.9106 419.255 18.7488 419.976 18.8397C422.219 19.1125 424.685 20.2923 426.885 21.0316C428.723 21.6528 432.619 22.4252 432.69 24.166C432.778 26.2268 429.302 26.8291 427.824 26.8291C425.355 26.8291 422.086 25.3883 419.509 26.2032C419.549 29.7486 423.38 32.4318 426.885 32.0007C427.192 30.3343 424.902 31.2602 425.156 29.6505C426.721 28.4707 428.596 30.4418 430.808 30.1206C431.671 29.8879 431.525 28.6408 431.747 27.7704C433.613 26.6378 435.951 24.9773 438.81 26.2032C438.952 25.9269 439.162 25.7167 439.44 25.5773C439.625 23.8566 437.556 22.959 438.654 21.3446C439.202 20.2321 442.127 20.616 442.578 21.5029C442.804 22.5634 441.853 22.4476 441.948 23.3818C442.503 24.6325 443.783 24.8297 444.461 24.7943C446.002 24.7116 446.307 23.3346 447.759 22.5988C448.344 22.3024 449.204 22.2705 449.954 21.9729C450.842 21.621 451.595 20.9088 452.308 20.7198C452.831 20.5805 453.62 20.7199 454.35 20.5616C455.276 20.3632 456.255 19.6192 457.017 19.6239C457.963 19.6239 458.64 20.7152 459.842 20.8781C460.496 20.9644 461.241 20.5061 462.196 20.4069C462.964 20.323 463.76 20.4978 464.392 20.4069C465.891 20.1896 466.92 19.4019 468.161 19.4657C469.036 19.5129 470.538 20.6915 471.14 20.0939C472.155 19.0889 469.786 18.3413 470.518 17.4273C472.924 17.6091 475.481 17.5536 477.894 17.8985C481.48 18.4087 484.857 20.1813 488.091 20.2487C487.786 18.0721 485.289 18.6968 484.167 17.7438C483.827 17.4509 482.424 15.1562 482.444 14.4523C482.451 14.0992 484.219 11.0842 484.64 10.6921C486.023 9.39535 490.561 9.40243 491.856 11.1597C492.744 12.362 492.45 14.1748 493.739 14.1382C494.848 14.1075 495.439 11.3853 496.722 11.3168C497.784 11.2625 498.324 13.0623 499.389 13.0422C500.691 13.0151 501.594 10.5976 503.314 10.5338C504.242 10.4984 504.55 11.0086 505.98 11.1597C506.963 10.5303 505.653 9.69887 506.14 8.80958C507.894 7.53529 511.902 8.5037 514.141 7.71244C514.767 6.96841 513.344 6.44287 513.986 5.67523C515.92 4.32535 519.171 4.2025 522.464 3.64153C524.477 3.29668 526.375 1.90078 527.952 1.75788C529.602 1.61144 531.174 2.72272 532.661 2.6991C533.565 2.68375 534.615 2.41093 535.487 2.07435C536.37 1.73068 536.974 0.875649 537.844 0.661889C539.22 0.325307 540.96 0.823685 542.552 0.661889C544.237 0.491826 545.725 -0.161267 546.944 0.0371397C548.084 0.219013 549.001 1.4331 550.083 1.60317C553.388 2.11808 556.801 1.10832 559.813 1.91612C560.351 2.06256 560.894 2.61999 561.541 2.85855C563.557 3.59431 564.932 3.364 565.309 5.83346C566.894 6.39561 567.825 7.84826 569.701 8.34192C570.953 8.67023 572.214 8.18362 573.625 8.18362C575.478 8.18362 577.852 8.25447 579.429 8.49658C580.331 8.63475 581.071 9.29613 581.943 9.43785C582.577 9.5406 583.417 9.37053 584.138 9.43785C585.121 9.52879 586.005 9.93266 586.805 9.90904C588.451 9.85707 589.699 8.39266 591.041 8.18362C591.764 8.07379 592.723 8.44107 593.396 8.49658C596.04 8.7186 599.087 8.15176 601.243 8.65487C602.397 8.92295 604.367 10.1902 605.639 11.1597C606.562 11.8636 607.121 12.9832 607.992 13.5099C608.817 14.0083 610.91 14.9023 611.762 14.7641C612.765 14.6059 612.807 13.4898 613.798 13.0422C616.914 12.3502 622.438 14.0319 624.943 12.884C625.913 12.4376 625.724 11.4125 626.513 10.8468C631.221 10.6177 635.913 11.0405 640.324 11.1597C641.875 11.2034 643.475 10.7641 644.878 11.005C646.431 11.2743 647.564 12.8297 649.11 13.3552C650.141 13.7036 651.956 13.5217 653.506 13.8264C654.547 14.0284 655.401 14.6531 656.172 14.7641C657.849 15.0015 659.451 14.5775 661.044 14.4523C664.643 14.163 669.268 13.9729 672.814 15.3936C674.702 16.1495 675.493 17.6765 677.518 17.8985C680.42 18.2185 684.91 17.6599 687.878 17.8985C688.587 17.9575 689.25 18.2504 689.761 18.2102C690.756 18.1394 691.361 17.2962 692.587 17.2725C694.14 17.2371 696.613 19.69 698.869 19.3097C699.839 18.6543 698.087 17.7402 699.018 17.1143C699.903 16.3821 701.112 17.1072 702.474 17.1143C703.216 17.1226 704.128 16.7387 704.828 16.8025C706.553 16.9513 708.19 18.4996 710.321 18.9944C712.013 19.3901 714.341 19.5365 716.445 19.3097C717.951 19.1444 719.242 18.6378 720.681 18.8397C721.375 18.9354 721.993 19.4373 722.718 19.6239C723.388 19.7928 724.042 19.631 724.602 19.7774C725.125 19.9203 725.644 20.4104 726.174 20.5616C729.091 21.3954 732.976 21.8075 736.063 22.7571C737.877 23.3145 739.733 24.4388 741.241 24.4778C741.984 24.5026 742.644 24.1577 743.595 24.166C748.336 24.1979 753.913 26.1678 753.477 30.5918C747.928 31.8059 743.287 26.7772 737.469 28.2416C736.543 28.4743 735.512 29.4911 735.59 30.4335C735.805 33.164 742.697 32.9337 743.275 35.6051C742.146 36.4483 740.912 35.6524 739.982 35.7634C738.567 35.9299 736.181 37.4215 735.273 38.2683C734.212 39.2615 733.279 41.8053 732.134 42.0309C730.732 42.3037 728.592 40.6503 726.484 41.0896C725.71 41.2514 724.97 42.2127 724.289 42.3438C722.557 42.6721 720.352 41.4014 719.271 43.4398C719.841 44.8724 719.493 46.867 720.681 47.6701C721.446 48.1921 722.405 47.7882 723.348 48.1402C724.451 48.5523 725.06 49.894 726.012 50.6486C726.793 51.2627 727.624 51.278 728.056 52.0575C728.155 53.2125 727.597 53.3401 727.74 54.0947C727.986 55.4092 730.043 55.7068 730.094 56.6008C730.165 57.7322 728.798 57.4913 728.529 58.638C728.43 59.3667 729.372 59.5604 729.468 60.5181C729.531 61.1582 728.949 61.8267 729 62.5554C729.067 63.6005 729.892 64.2961 729.781 65.2185C729.69 66.0097 729 66.6274 728.366 66.9439C725.361 65.0166 722.655 62.3617 719.421 59.8922C716.111 57.3602 710.864 54.2506 710.321 48.9243C710.302 48.1083 712.053 47.4682 712.359 46.2612C712.485 45.7663 712.164 45.0613 712.204 44.381C712.316 42.5411 713.838 40.7731 713.778 39.6807C713.702 38.482 711.463 36.2547 710.321 35.9181C709.41 36.3964 710.311 37.3459 710.163 38.1135C709.981 39.0595 708.832 40.2145 707.809 40.3066C704.841 40.5629 704.508 36.4873 699.803 37.6435C698.586 37.9435 696.876 39.7764 697.296 42.0309C697.425 42.7159 699.312 43.4516 699.177 44.381C699.046 45.2833 694.9 45.5491 693.997 45.4782C691.464 45.2751 690.162 43.3843 687.878 43.4398C686.758 43.467 685.774 44.3775 684.894 44.5358C679.951 45.438 672.615 42.1065 670.932 46.4147C670.689 47.0253 670.824 47.8201 670.615 48.4531C670.31 49.3589 669.587 50.0711 669.359 50.6486C669.167 51.1316 669.199 52.0847 668.887 52.8417C668.602 53.5255 665.634 56.2004 668.26 56.9173C668.887 57.0838 669.179 56.648 669.989 56.759C671.335 56.9409 673.579 59.1009 675.164 59.1092C676.111 59.1127 677.423 58.0451 678.145 58.0133C679.6 57.9424 680.649 58.8801 681.754 59.4222C682.81 59.9406 684.424 61.0283 685.211 60.9882C686.694 60.9138 685.984 59.8886 687.407 59.4222C690.122 60.2252 691.393 63.0974 693.997 65.3768C694.94 66.1999 696.336 66.9085 697.608 68.0399C698.318 68.6729 700.5 70.37 700.592 71.1742C700.675 71.9218 699.981 72.2419 699.803 72.8985C699.549 73.8516 700.144 74.553 699.49 75.2486C696.986 74.3239 696.423 71.858 694.623 69.7653C693.958 68.9858 693.288 68.0588 692.273 66.9439C691.813 66.4408 690.15 64.6764 689.13 65.065C687.157 65.8125 690.213 68.7993 690.701 69.4523C691.742 70.8329 693.126 72.693 693.217 74.1539C693.275 75.0868 692.607 76.7839 692.587 78.383C692.575 79.4636 692.86 80.4438 692.744 81.3579C692.626 82.2767 691.973 83.3255 691.644 84.3388C691.275 85.4855 691.192 86.859 690.862 87.6266C690.253 89.0391 688.199 90.7007 686.776 90.7598C685.473 90.8153 684.915 89.7583 683.638 89.8221C681.708 89.913 681.351 91.6904 680.189 93.1099C680.288 94.6535 680.772 95.1838 680.503 96.2443C680.079 97.9071 677.764 98.1953 677.835 99.8487C677.899 101.38 679.951 101.678 680.971 102.358C682.374 103.288 684.823 105.358 686.154 107.059C687.026 108.175 688.286 110.259 688.196 111.443C688.076 112.994 683.606 115.151 681.754 114.577C680 114.035 680.602 112.361 680.189 110.818C679.868 109.631 678.938 109.121 678.467 108.155C678.215 107.648 678.33 106.845 677.99 106.274C677.044 104.68 675.39 105.552 673.436 104.549C672.157 103.894 672.529 102.512 672.026 101.259C671.352 99.5723 668.507 98.7764 666.223 99.2239C664.543 99.5475 664.02 100.958 662.454 101.259C660.151 99.8971 662.926 96.5372 660.1 96.2443C657.937 96.0187 656.501 99.3468 655.233 100.32C654.378 100.973 652.825 101.108 652.725 102.042C652.54 103.771 654.553 103.419 656.172 104.079C657.644 104.68 657.814 106.343 659.157 106.429C660.279 106.505 661.024 105.274 662.139 105.175C664.067 105.005 665.634 105.872 666.845 106.587C666.061 108.486 661.836 109.88 661.824 112.385C661.817 113.836 663.509 114.087 664.808 115.047C665.902 115.858 667.345 118.149 668.887 119.748C669.553 120.437 670.63 120.892 670.932 121.316C671.657 122.353 671.542 123.614 672.338 124.295C672.474 125.153 671.947 125.364 672.026 126.174C672.414 127.302 674.151 127.088 674.539 128.213C674.217 130.915 675.343 133.459 673.127 134.48C672.105 139.327 670.952 143.118 667.634 145.761C664.65 148.131 660.711 148.832 657.116 149.991C656.184 150.291 655.439 151.273 654.607 151.557C652.519 152.266 648.801 151.835 648.647 154.379C648.559 155.634 650.24 156.39 650.371 157.668C650.569 159.631 648.81 161.604 647.544 161.743C646.634 161.841 644.669 161.208 644.56 159.547C644.437 157.68 646.882 156.915 647.074 155.788C647.407 153.793 645.349 151.851 642.995 152.029C640.922 152.183 636.207 156.338 636.092 158.609C636.001 160.306 639.459 163.84 640.641 164.877C645.049 168.755 649.729 171.081 648.955 180.546C647.855 182.943 645.04 183.455 642.838 184.776C641.16 185.781 640.324 188.899 637.5 189.165C636.365 188.776 637.026 187.007 636.714 186.189C636.286 185.066 634.038 184.515 632.636 183.367C631.486 182.425 631.003 180.942 630.123 180.075C629.025 178.995 627.384 178.77 626.041 178.038C625.197 177.578 624.539 175.964 623.687 176.004C622.303 176.059 622.783 177.389 622.435 179.605C622.086 181.785 620.492 183.458 621.02 186.03C621.241 187.083 622.558 187.934 623.214 189.005C624.305 190.783 624.456 192.853 625.57 193.865C626.306 194.534 627.559 194.68 628.395 195.274C630.059 196.461 632.988 199.033 633.576 200.447C634.256 202.096 633.598 204.038 634.047 205.775C634.57 207.781 637.198 209.218 635.62 211.26C634.118 210.982 632.807 210.001 631.534 209.222C629.378 207.889 628.387 206.74 626.984 204.521C626.572 203.872 625.962 203.239 625.728 202.642C625.181 201.237 625.299 199.646 624.788 197.941C624.348 196.473 622.645 194.153 621.332 192.923C620.232 191.887 618.277 191.282 618.194 189.791C618.079 187.689 618.907 185.216 618.824 182.738C618.804 182.204 618.44 181.666 618.356 181.017C618.19 179.814 618.475 178.342 618.194 177.253C617.936 176.253 617.207 175.351 616.783 174.437C616.363 173.534 615.935 172.629 615.531 171.457C614.893 169.645 614.178 166.151 612.704 165.973C611.131 165.784 609.577 168.917 607.526 168.952C606.472 168.969 605.068 168.125 604.858 167.068C604.66 166.107 605.353 165.138 605.329 164.094C605.27 161.993 603.776 161.181 602.659 159.705C602.206 159.109 602.088 158.269 601.714 157.825C601.002 156.975 599.638 156.5 598.735 155.634C597.875 154.803 596.931 153.607 596.536 152.813C595.929 151.586 595.734 149.995 594.811 149.833C593.928 149.678 592.906 150.944 591.986 151.246C591.029 151.557 588.68 151.962 587.748 152.029C584.598 152.246 582.042 151.407 582.413 155.163C581.923 156.848 580.14 156.868 578.958 157.668C577.456 158.688 576.363 160.734 574.723 162.368C573.925 163.168 572.772 163.666 572.055 164.406C571.455 165.023 571.27 166.013 570.64 166.602C568.967 168.181 566.454 168.316 565.309 170.519C565.243 173.123 566.542 175.093 566.248 177.566C566.114 178.694 565.269 179.696 565.148 180.859C565.049 181.856 565.559 182.928 565.309 183.993C565.171 184.562 564.537 184.862 564.05 185.559C563.613 186.184 563.438 187.015 563.115 187.439C562.584 188.115 561.716 188.586 561.224 189.165C560.428 190.106 560.26 190.778 559.499 190.889C556.06 191.384 555.212 184.852 553.694 182.113C552.991 180.855 551.566 179.719 550.868 178.196C550.063 176.44 549.817 174.235 548.669 172.241C547.693 170.539 546.346 168.834 545.688 167.068C545.128 165.577 544.646 163.71 544.12 162.055C543.56 160.306 542.954 158.106 542.863 156.73C542.732 154.695 543.255 153.441 541.606 152.654C540.093 153.01 539.419 154.533 537.682 154.533C536.009 154.533 531.511 151.638 532.823 149.049C531.725 147.498 528.963 146.648 526.856 144.82C525.65 143.771 524.56 141.273 522.464 141.061C521.885 141.002 521.132 141.325 520.578 141.374C519.25 141.488 516.896 141.254 515.397 141.374C513.515 141.524 511.189 141.946 508.806 141.685C507.272 141.519 505.367 141.222 503.785 141.061C501.777 140.854 499.104 140.379 497.983 139.335C497.286 138.694 497.005 136.64 495.779 136.359C494.326 136.023 493.525 137.147 492.173 137.455C489.296 138.113 486.895 136.867 484.951 135.576C483.573 134.662 482.316 134.187 481.343 133.539C478.957 131.943 478.529 127.147 474.905 127.112C473.646 127.1 471.641 127.888 471.454 129.309C471.331 130.305 472.646 132.157 473.182 132.913C474.942 135.39 478.175 136.32 479.146 139.648C479.797 139.901 481.12 139.078 481.813 139.806C482.421 141.234 481.805 143.886 483.225 144.507C489.748 145.583 491.61 142.014 494.528 139.493C496.219 140.598 495.661 141.563 496.251 142.781C496.853 144.031 497.797 145.013 498.919 145.448C499.706 145.749 500.718 145.468 501.903 145.916C502.645 146.197 505.738 149.121 505.83 150.15C505.909 151.071 503.797 154.209 503.156 155.005C502.534 155.781 501.571 156.183 501.273 156.884C501.051 157.426 501.122 158.577 500.959 158.922C500.671 159.547 499.261 160.362 498.447 161.114C497.59 161.913 496.592 162.535 495.779 163.151C494.788 163.912 494.174 164.956 493.112 165.348C491.024 166.115 489.038 165.787 487.307 166.915C486.172 167.651 486.169 169.312 484.798 170.203C483.364 171.133 480.91 171.141 478.829 172.087C477.495 172.691 476.693 173.866 475.539 174.278C475.067 174.445 474.477 174.302 473.967 174.437C472.924 174.701 471.96 175.442 470.983 175.687C470.209 175.885 469.39 175.787 468.628 176.004C466.211 176.701 463.996 179.154 461.566 177.725C460.42 175.085 460.234 171.762 458.899 169.42C458.217 168.225 456.877 167.856 456.39 166.602C456.323 165.593 457.54 165.87 457.643 165.035C457.243 163.341 455.641 162.55 454.662 161.114C454.182 160.414 453.962 159.416 453.406 158.609C451.534 155.89 447.845 154.478 447.127 151.087C446.933 150.165 447.159 149.441 446.973 148.737C446.664 147.577 445.879 146.359 445.088 145.448C444.488 144.752 443.264 144.278 442.578 143.253C442.122 142.576 442.023 141.622 441.635 140.902C440.074 137.994 437.814 135.425 435.357 133.381C434.078 133.566 432.702 133.653 432.064 134.48C432.702 136.53 433.681 138.246 434.732 139.965C435.691 141.527 437.054 143.212 437.711 144.978C437.957 145.63 437.914 146.485 438.183 147.17C439.17 149.655 442.273 150.419 442.891 153.283C443.309 155.202 442.8 156.532 443.363 158.451C443.903 160.294 446.628 161.383 447.759 163.151C448.678 164.595 448.686 166.637 449.327 168.011C450.266 170.021 452.893 170.891 454.82 172.241C456.549 173.455 457.786 175.327 459.211 176.629C460.051 177.389 461.205 177.527 461.41 178.354C461.676 179.415 460.964 179.77 460.781 180.701C461.986 181.955 463.158 184.27 465.176 184.463C466.006 184.542 467.051 183.707 468.316 183.521C468.953 183.43 469.666 183.621 470.198 183.521C471.034 183.371 471.762 182.627 472.714 182.425C474.316 182.081 476.173 182.219 478.203 181.955C480.122 181.704 481.442 180.087 482.912 180.546C484.524 182.315 483.368 184.322 482.912 186.03C482.753 186.632 482.752 187.253 482.602 187.756C481.754 190.545 479.535 192.611 478.517 195.119C478.203 195.887 478.258 196.829 477.894 197.624C476.725 200.136 474.288 202.614 472.397 204.676C471.331 205.835 470.392 206.883 469.258 207.809C468.133 208.734 466.757 209.238 465.489 210.159C462.977 211.996 460.361 214.627 458.585 217.056C457.899 217.998 457.572 219.082 456.857 219.878C455.835 221.017 454.254 221.58 453.406 222.699C452.736 223.581 452.291 225.18 451.523 226.771C450.66 228.563 448.855 229.774 449.17 232.255C449.288 233.204 450.14 233.795 450.426 234.764C450.912 236.433 450.54 237.838 450.266 239.618C451.155 241.767 451.793 244.158 453.406 245.574C453.6 248.744 453.144 251.821 453.406 254.504C453.572 256.213 454.238 257.472 453.564 259.048C452.97 260.435 450.691 262.878 449.327 263.747C447.845 264.702 445.579 264.95 443.989 266.103C442.884 266.901 441.969 268.302 440.85 269.24C439 270.78 436.464 272.219 436.3 273.782C436.206 274.681 437.011 276.042 437.239 276.913C437.853 279.227 438.448 282.555 437.399 285.059C436.26 287.771 430.508 287.208 429.866 290.072C429.67 290.944 430.249 291.64 430.178 292.582C430.122 293.38 429.072 296.262 428.608 297.124C427.915 298.422 426.338 299.003 425.315 300.104C424.03 301.493 423.38 303.503 422.017 304.959C420.167 306.944 417.665 309.038 415.269 310.756C413.184 312.26 409.442 313.819 406.169 314.048C404.264 314.182 402.218 313.6 400.205 313.893C399.468 313.996 398.667 314.672 397.693 314.832C397.126 314.923 396.547 314.733 395.968 314.832C394.982 314.997 394.058 315.781 393.142 315.773C391.109 315.749 388.497 313.328 388.435 310.917C388.411 309.987 389.232 309.105 389.219 308.25C389.203 307.25 387.974 305.995 387.02 304.176C386.104 302.427 385.743 300.444 384.823 299.011C383.85 297.484 382.562 296.759 381.844 295.56C380.397 293.151 380.29 290.298 379.803 287.409C379.645 286.468 378.999 285.446 378.859 284.275C378.689 282.835 379.034 281.237 378.704 280.046C378.451 279.128 377.433 278.195 376.819 277.067C375.713 275.036 374.936 272.381 373.996 270.802C373.113 269.322 371.33 267.78 371.171 266.103C371.063 264.962 371.314 262.837 371.484 261.714C371.654 260.614 372.471 259.743 372.74 258.584C372.919 257.812 372.705 256.927 372.895 256.076C373.695 252.49 377.65 251.186 377.135 246.829C376.913 244.981 375.605 244.069 375.408 241.969C375.317 240.987 375.898 240.126 375.88 239.148C375.851 237.826 374.73 235.86 374.151 234.605C372.562 231.147 371.587 227.986 369.289 225.361C368.036 223.93 366.395 222.92 365.365 221.598C364.521 220.524 363.495 218.508 363.478 217.682C363.462 216.787 364.168 216.23 364.421 215.331C364.75 214.176 364.775 211.988 365.207 210.159C365.404 209.321 366.313 207.291 366.149 205.93C365.991 204.619 364.037 202.107 362.381 201.7C360.189 201.158 357.934 202.4 355.164 202.17C352.778 200.663 352.956 196.717 349.512 196.215ZM386.865 42.9686C387.048 45.5963 382.843 45.268 382.312 47.5154C382.073 48.5322 382.803 49.8892 382.629 50.8033C382.307 52.4496 380.714 51.9713 378.704 52.8417C377.679 53.2846 376.684 54.9143 375.566 55.0336C374.532 55.1446 373.902 54.4313 373.212 54.5671C372.182 54.7608 372.526 56.0221 371.013 56.2878C369.808 56.4981 367.699 55.2119 367.561 56.759C367.469 57.7522 369.455 58.2896 370.7 58.1668C371.686 58.0723 372.408 57.3956 373.366 57.3838C375.225 57.3672 376.434 58.7608 377.603 58.7962C380.298 58.8718 382.941 56.3115 385.767 56.6008C387.043 56.7307 387.8 57.633 388.748 57.542C390.261 57.3991 391.549 55.6548 392.672 55.0336C392.196 52.3941 392.714 48.9125 395.184 48.7661C396.88 48.6669 399.424 51.6618 399.733 48.7661C399.868 47.5083 398.394 46.3958 397.379 46.4147C396.476 46.4348 395.29 48.2004 394.553 46.7324C394.558 45.2952 396.17 45.6754 397.066 45.3187C397.732 45.0542 398.204 44.3303 398.949 44.0646C402.682 42.7549 407.858 45.3507 409.307 42.1856C405.995 39.3642 400.355 43.2142 396.594 42.9686C394.99 42.8658 392.873 41.6754 392.358 40.1472C392.196 39.6653 392.331 39.0158 392.2 38.1135C392.056 37.1132 391.537 36.0645 391.574 35.4468C391.732 32.6172 398.79 32.0834 398.79 28.5546C397.443 27.2638 393.491 27.4822 392.2 28.8663C391.736 29.3647 391.76 30.3733 391.102 31.3759C389.694 33.5159 385.149 33.7699 383.727 36.3881C383.41 36.9704 382.858 38.5611 383.096 39.5224C383.469 41.0069 386.758 41.4097 386.865 42.9686Z" fill="#E6E8EA"/>
<path d="M163.065 187.756C164.305 187.554 163.945 184.709 162.439 185.401C161.301 185.928 161.892 187.941 163.065 187.756ZM115.983 27.6122C116.986 27.4422 118.015 27.8933 118.654 26.9875C117.905 23.5366 113.125 25.6459 110.335 25.8904C109.748 26.8718 108.964 27.6559 108.766 29.0247C110.93 29.5703 113.542 28.0268 115.983 27.6122ZM116.767 38.8966C117.659 38.5884 118.897 38.7466 119.121 37.7971C118.388 37.2113 117.636 36.4201 116.767 36.3882C115.631 36.3492 115.083 37.3543 113.941 37.9554C112.614 38.6557 110.775 38.8258 110.648 39.9938C113.078 40.4685 115.265 39.4115 116.767 38.8966ZM144.863 22.7571C145.386 22.4206 146.186 21.9659 145.802 21.19C144.069 20.3786 141.14 20.9963 138.584 20.7199C137.134 18.6733 134.709 18.3568 134.503 21.6612C137.424 24.0279 141.846 20.557 144.863 22.7571ZM204.5 10.6922C204.298 10.4749 203.76 10.4749 203.556 10.6922C203.556 10.8977 203.556 11.1079 203.556 11.3169C204.222 11.4598 204.345 11.0606 204.5 10.6922ZM222.548 26.0451C223.321 26.1407 223.757 25.8951 223.646 25.1085C222.948 24.6172 221.93 25.2621 222.548 26.0451ZM57.6017 50.6487C57.6372 50.3523 57.4231 50.3014 57.4467 50.0204C56.9677 50.0168 56.4129 49.9295 56.504 50.4916C56.7299 50.9416 57.3356 51.0219 57.6017 50.6487ZM123.989 181.8C124.068 181.566 124.218 181.405 124.301 181.172C123.826 179.612 122.32 181.741 123.989 181.8ZM132.462 64.2809C134.213 64.2171 135.399 59.0502 132.462 59.734C130.496 60.1934 130.02 64.3682 132.462 64.2809ZM152.079 81.8304C151.429 81.0663 147.91 81.9202 146.9 82.6134C146.205 83.0917 145.734 84.2597 145.018 85.1219C144.276 86.0123 143.448 86.7008 142.821 87.472C142.255 88.1688 139.076 92.7463 141.565 93.2695C142.627 93.4903 144.811 91.2902 145.018 90.4481C145.726 87.5748 147.023 85.5258 149.254 84.1794C150.545 83.4 151.869 83.4992 152.079 81.8304ZM154.278 79.3208C157.406 77.9922 153.661 73.8965 152.238 73.5233C149.694 72.8596 146.075 75.3869 143.135 76.1877C141.477 76.6376 139.901 76.6778 139.524 78.0702C141.01 80.5243 143.947 77.5328 146.114 77.9119C147.213 78.1055 147.854 79.6055 148.94 79.7921C149.682 79.9184 153.981 79.4472 154.278 79.3208ZM161.183 91.2311C158.952 90.4399 156.891 91.7696 155.064 92.0141C153.974 92.1606 151.988 91.7933 152.238 93.4231C152.44 94.7529 154.497 94.2698 155.691 93.8942C158.171 93.1101 159.736 92.4381 161.183 91.2311ZM163.378 84.9636C164.611 83.994 164.064 82.0159 162.752 81.6722C162.237 81.5364 161.552 82.0513 160.711 81.9875C159.824 81.9202 158.936 81.11 158.202 81.0462C156.95 80.9388 155.678 81.5564 155.218 82.1422C155.17 83.0799 155.908 83.2299 155.848 84.1794C154.322 85.2683 155.131 88.9081 156.633 89.0392C158.227 89.1774 159.05 85.0155 161.183 84.6506C161.955 84.516 162.351 85.0899 163.378 84.9636ZM171.542 87.6267C170.888 86.9902 168.757 87.1709 167.302 87.3138C166.275 87.4165 165.055 87.635 164.948 88.4097C166.58 89.1573 171.031 89.6958 171.542 87.6267ZM61.9972 73.3698C62.7377 72.6104 61.6838 71.0031 60.5825 71.6444C60.4749 72.2183 60.7836 73.6036 61.9972 73.3698ZM231.647 77.4418C230.915 77.2588 229.917 77.2954 228.981 77.1289C228.18 76.986 227.229 76.7486 226.472 76.6577C224.535 76.4286 222.437 76.9907 221.291 75.8746C223.159 73.3969 225.639 70.9558 228.042 68.823C228.754 68.1864 230.288 67.7506 229.924 66.4728C228.588 65.3012 226.948 66.5448 225.687 67.2558C224.363 67.9998 222.786 69.0722 221.291 69.2942C218.696 69.678 215.253 68.5348 213.132 69.9189C212.838 71.1023 215.545 70.644 215.17 72.4273C214.13 72.5986 213.148 72.6813 212.346 71.9573C211.618 71.3007 212.034 70.3146 211.562 69.9189C210.758 69.2552 207.734 69.0722 206.382 69.2942C204.733 69.5635 203.276 70.5484 203.086 71.9573C205.067 72.8832 208.333 71.0031 209.05 73.3698C207.964 75.3208 205.408 76.3931 205.752 79.009C205.888 80.0176 207.088 81.3663 207.952 81.5175C208.819 81.6674 209.308 80.8089 210.147 80.888C211.036 80.9707 210.833 81.9839 211.876 81.8304C213.386 81.1844 214.221 79.0669 215.954 79.1661C218.03 81.6828 214.079 82.9099 211.876 83.7094C209.363 84.6188 206.097 85.1018 204.182 85.9048C203.18 86.3241 199.383 89.9887 198.849 87.1555C198.464 85.1136 200.727 85.704 201.204 84.0211C198.773 83.5511 196.51 85.0663 194.299 85.9048C191.145 87.0965 185.798 87.8523 185.038 91.3894C184.886 92.098 185.346 93.423 184.883 93.8942C184.506 94.2745 182.255 94.3406 181.271 94.6772C179.758 95.1957 178.438 96.3035 177.503 96.5574C176.798 96.7511 175.756 96.6956 175.307 96.8739C174.059 97.3569 173.599 99.0422 172.168 100.162C171.582 100.621 170.281 100.953 169.814 101.416C169.003 102.224 168.895 104.246 167.46 104.549C166.549 104.629 165.808 103.865 164.948 104.392C164.845 106.39 165.653 109.109 164.793 111.131C162.935 112.641 160.894 113.714 158.515 115.047C157.2 115.787 156.023 115.978 154.433 116.772C153.308 117.335 152.278 118.673 150.982 119.436C147.985 121.196 144.367 123.282 144.391 127.742C144.396 128.708 144.895 129.748 145.018 130.876C145.092 131.54 144.937 132.189 145.018 132.913C145.203 134.551 146.392 136.637 145.018 137.768C142.904 136.901 140.218 136.608 138.739 135.106C138.335 133.558 139.555 132.285 139.37 130.876C139.219 129.743 137.626 127.73 136.699 127.583C135.743 127.432 134.863 128.445 133.876 128.366C132.704 128.275 131.613 126.661 130.108 126.487C127.9 126.23 126.275 126.989 123.83 126.646C121.463 127.908 120.77 130.155 117.87 129.933C116.847 129.859 115.912 129.08 114.73 128.837C113.451 128.572 111.508 128.122 110.176 128.213C107.506 128.39 105.568 130.309 103.273 131.501C101.248 132.553 98.3821 133.863 97.78 136.047C97.4512 137.223 97.7292 138.876 97.3081 139.965C97.0313 140.68 96.4245 141.318 96.0519 141.998C94.2918 145.207 92.8345 149.449 94.1699 154.067C94.3675 154.751 96.1157 158.613 96.8361 159.393C97.6452 160.259 100.027 161.56 101.387 161.585C102.535 161.609 103.884 161.003 104.997 160.801C106.288 160.572 107.907 160.552 109.079 160.176C112.471 159.092 111.802 154.51 115.198 152.966C116.68 152.298 118.396 152.163 121.004 152.029C121.832 152.725 122.22 153.944 122.106 155.005C122.018 155.804 121.259 156.528 120.849 157.668C120.493 158.669 120.418 159.84 120.065 160.646C119.598 161.703 118.555 162.474 118.182 163.468C117.937 164.113 118.071 164.917 117.87 165.501C117.509 166.535 116.126 167.262 116.767 168.323C120.129 169.657 124.195 167.944 127.127 168.481C128.364 168.708 130.916 170.183 130.892 172.087C130.877 173.511 129.791 174.445 129.636 176.004C129.446 177.967 128.626 180.369 128.538 181.955C128.4 184.554 132.359 189.042 135.129 189.005C138.113 188.967 139.853 186.042 143.448 187.598C144.64 188.111 145.9 190.042 147.217 189.948C148.303 189.869 149.943 187.97 150.668 186.655C151.552 185.053 151.616 183.704 153.177 182.896C154.861 182.026 156.202 182.445 158.357 181.642C159.32 181.285 160.157 180.672 161.024 180.075C161.785 179.553 162.586 178.184 163.537 179.134C164.789 180.384 162.004 181.088 163.065 182.425C165.241 183.578 166.354 180.285 167.932 180.233C168.435 180.218 170.175 181.211 171.071 181.8C172.296 182.603 172.712 183.731 174.051 183.993C174.911 184.163 176.294 183.664 177.503 183.835C179.104 184.063 180.059 185.437 181.271 185.401C182.751 185.362 183.46 183.755 184.724 183.521C187.494 183.016 188.525 183.83 189.745 185.559C191.113 185.797 191.16 183.98 192.413 184.622C191.727 185.987 192.646 186.616 193.197 187.756C193.554 188.487 193.494 189.005 193.827 189.323C194.576 190.034 196.023 190.034 197.12 190.732C198.278 191.46 198.931 192.813 200.26 194.336C201.627 195.895 203.925 197.51 205.752 197.624C207.476 197.735 208.879 197.137 210.306 197.311C213.552 197.712 215.57 199.33 217.84 201.075C219.109 202.047 220.254 202.725 220.662 203.892C220.947 204.707 220.809 205.799 221.134 206.714C221.827 208.664 224.676 209.606 223.646 212.982C224.117 213.969 225.176 214.326 226.314 215.018C227.224 215.577 227.993 216.74 228.981 216.898C229.618 217.001 230.313 216.708 230.863 216.74C232.647 216.866 233.871 217.556 235.417 218.152C236.376 218.521 237.605 218.667 238.243 219.098C239.039 219.632 239.143 221.437 240.125 221.913C240.767 222.223 242.194 221.793 243.264 221.913C244.948 222.11 247.235 223.139 248.756 223.17C249.68 223.189 250.445 222.79 251.265 222.854C255.109 223.15 257.289 227.741 260.999 229.121C262.148 229.552 263.971 229.253 264.764 229.593C266.155 230.194 267.328 234.443 267.431 236.327C267.748 242.021 263.369 243.848 260.84 247.611C260.313 248.399 260.02 249.646 259.271 250.745C257.765 252.957 256.089 253.417 256.291 257.483C256.346 258.6 256.917 259.688 256.917 260.93C256.917 262.447 256.785 264.428 256.445 265.789C256.188 266.827 255.328 267.668 255.19 268.611C255.05 269.565 255.471 270.305 255.348 271.119C255.212 272.022 254.31 273.296 253.62 274.562C252.169 277.237 251.852 280.382 248.911 281.455C247.184 282.088 244.841 281.735 242.951 282.396C242.186 282.666 241.219 283.37 240.28 283.805C237.55 285.076 233.657 286.789 232.904 289.602C232.234 292.111 233.839 294.109 233.375 296.969C232.888 297.821 232.23 298.672 231.493 299.633C230.816 300.523 230.478 301.567 229.765 302.454C228.821 303.634 227.356 304.156 226.786 305.747C226.59 306.285 226.713 306.925 226.472 307.78C226.381 308.097 225.803 308.587 225.528 309.189C225.275 309.747 225.287 310.46 225.057 310.917C224.341 312.363 222.207 315.65 220.662 316.089C217.404 316.999 213.968 314.708 211.717 315.143C212.042 316.715 213.184 316.552 213.917 317.652C214.344 318.302 214.578 319.16 215.17 319.845C215.875 320.66 216.497 320.96 216.583 321.882C216.762 323.813 215.256 325.756 214.229 326.428C213.29 327.042 211.34 327.401 209.675 327.68C208.515 327.874 205.519 327.885 204.968 328.625C204.16 329.714 205.396 332.4 204.814 333.48C203.64 335.771 200.486 333.417 198.849 334.105C198.71 335.288 199.146 336.528 200.105 337.081C201.091 337.658 202.59 336.907 203.244 338.023C202.922 339.582 201.243 339.783 200.889 341.315C200.934 342.811 201.393 343.202 201.204 344.132C200.794 346.146 197.66 346.063 197.751 348.208C197.886 351.417 203.917 350.102 204.028 353.225C204.091 355.117 202.3 355.137 201.674 356.98C201.337 357.969 201.868 358.199 201.674 359.018C201.413 360.13 200.105 360.45 200.105 361.681C200.101 363.181 202.3 364.83 203.398 366.069C204.472 367.285 205.851 369.016 207.321 369.832C209.526 371.046 212.806 370.774 213.759 372.965C213.457 374.284 212.184 374.636 210.933 375H210.619C210.196 374.744 208.689 374.744 208.265 375C207.532 375 206.799 375 206.069 375C203.969 374.034 201.42 373.409 198.849 372.495C197.921 372.167 196.876 371.383 195.868 370.933C195.112 370.587 194.259 370.453 193.669 370.145C192.317 369.438 190.796 367.142 189.432 366.231C188.604 365.674 187.304 365.38 186.764 364.815C186.25 364.28 185.968 363.122 185.508 362.469C185.002 361.748 184.07 361.223 183.468 360.43C182.164 358.701 180.499 356.375 180.487 355.1C180.475 353.846 181.684 352.996 181.271 351.816C180.888 350.703 178.479 350.946 178.133 349.617C177.923 348.816 178.826 347.468 178.759 346.331C178.723 345.671 177.487 344.772 177.975 343.819C178.538 342.722 179.6 343.91 180.487 343.352C179.822 341.089 180.539 337.449 178.288 336.768C177.13 337.741 179.469 339.93 177.503 340.532C175.605 339.688 176.045 337.193 175.621 335.36C175.344 334.148 174.741 333.061 174.682 331.756C174.65 331.071 174.951 330.276 174.835 329.567C174.503 327.454 172.149 325.724 172.009 323.608C171.947 322.588 172.636 321.724 172.795 320.632C172.906 319.893 172.692 319.061 172.795 318.282C172.933 317.285 173.484 316.371 173.579 315.461C173.766 313.74 173.576 310.787 173.267 309.347C172.878 307.538 171.439 306 171.225 304.025C171.15 303.309 171.463 302.117 171.384 301.203C171.309 300.352 170.841 299.51 170.758 298.535C170.679 297.643 170.98 296.792 171.071 295.715C171.237 293.75 170.686 291.557 170.758 289.602C170.777 289.028 171.079 288.601 171.071 288.039C171.051 286.422 170.512 284.791 170.441 283.18C170.318 280.205 170.77 278.096 170.286 275.346C169.922 273.265 169.47 270.075 168.716 268.769C167.877 267.309 164.575 264.831 162.911 263.906C161.812 263.297 160.497 263.088 159.301 262.497C156.745 261.247 151.79 258.6 150.668 256.076C150.344 255.343 150.387 254.377 150.039 253.567C149.356 251.959 147.918 250.571 146.9 249.02C144.962 246.064 143.396 242.358 141.406 239.306C140.4 237.756 139.528 235.998 138.426 234.764C137.78 234.036 135.711 233.355 135.446 232.255C135.093 230.807 134.019 228.817 134.19 227.713C134.416 226.213 137.333 225.001 137.328 223.64C137.324 222.477 135.771 221.802 135.446 220.82C134.653 218.423 135.91 217.016 136.857 215.018C137.169 214.365 137.475 213.31 137.8 212.826C138.375 211.964 139.543 211.722 140.309 210.789C140.737 210.267 141.007 209.178 141.565 208.438C142.758 206.855 144.684 206.262 145.176 204.833C145.576 203.67 145.81 197.85 145.33 195.902C145.057 194.778 144.006 193.838 143.607 192.768C142.897 190.877 142.73 188.812 140.781 188.852C139.575 188.876 138.727 190.205 137.955 191.044C137.769 192.16 137.867 193.367 136.699 193.707C134.915 194.234 134.229 191.83 132.148 191.202C131.32 190.949 130.001 190.965 129.481 190.732C127.963 190.051 127.472 187.83 125.871 186.968C124.532 186.251 123.385 186.502 122.574 185.401C122.237 184.646 122.502 183.28 122.419 182.267C120.699 181.263 119.241 177.516 117.239 176.629C115.912 176.039 113.879 176.095 112.218 175.533C111.437 175.268 110.835 174.927 110.018 174.75C109.011 174.524 107.976 174.512 107.197 174.12C104.089 172.58 102.413 167.592 98.5643 167.698C96.9236 167.742 95.3433 169.272 93.8565 169.265C92.3779 169.257 89.901 168.087 88.0462 167.228C86.1205 166.333 83.989 165.846 82.3993 165.035C81.1147 164.378 80.224 163.18 79.1014 162.681C78.2415 162.301 76.9853 162.234 76.2791 161.902C75.2772 161.427 74.2316 160.414 72.9825 159.547C71.7972 158.728 70.5174 157.478 70.4701 156.417C70.418 155.19 71.5997 154.146 71.7263 152.966C72.1308 149.236 69.3759 146.552 67.6442 144.349C66.3608 142.711 64.8538 141.322 63.5657 139.807C63.6379 138.802 63.6379 138.618 63.5657 137.613C62.591 136.669 61.7713 135.268 60.741 133.851C59.8089 132.573 57.9932 131.211 57.7602 129.779C57.4704 128.019 58.4297 126.472 57.7602 124.762C56.6424 121.925 52.6987 123.206 53.2062 126.957C53.3493 127.991 54.8078 129.38 55.2478 130.405C55.6985 131.449 55.6121 132.751 56.0321 134.009C56.4366 135.216 57.6538 136.256 58.0737 137.613C58.7384 139.758 58.7195 142.069 59.3287 143.411C59.8681 144.601 61.8541 145.729 60.741 147.17C59.2542 147.478 58.6828 145.995 57.7602 145.132C57.2445 144.653 55.3779 143.743 55.0928 142.627C54.8551 141.706 55.6796 140.463 55.4063 139.335C54.8669 137.123 50.3965 137.068 50.3804 134.792C50.3725 133.364 52.2513 133.194 52.2675 131.812C52.2794 130.302 50.2025 129.024 49.7544 127.742C49.3463 126.566 49.2788 124.695 49.1287 123.04C48.9813 121.489 49.1721 119.693 48.8113 118.494C48.4901 117.418 46.8692 115.938 45.831 115.36C44.4555 114.597 43.3659 114.914 42.6923 113.794C42.1055 112.816 41.7215 110.774 41.5944 109.722C41.368 107.838 41.5427 105.777 41.4355 103.766C41.3328 101.753 41.1268 99.8216 41.4355 97.6569C42.2122 96.1417 43.6275 95.3929 44.4199 93.8942C44.9711 92.8502 45.0501 91.5595 45.6725 90.4481C46.8217 88.4015 49.3264 86.5107 51.0107 84.4924C52.8253 82.3205 54.4979 80.2396 55.5601 77.7536C55.941 76.8714 56.9641 74.9169 56.8163 73.8363C56.6105 72.3293 53.7657 71.0869 53.9904 69.2942C54.1335 68.1817 55.7186 68.1982 56.1906 67.1023C56.433 66.5366 56.6507 64.9576 56.6625 64.2809C56.6862 62.7692 55.8854 61.1938 56.1906 59.5805C56.4484 58.2023 58.5007 57.6449 57.4467 56.1344C56.3999 54.6381 54.5215 56.941 53.3647 55.9749C52.3026 55.0845 53.5788 54.0086 53.6781 52.3705C53.7172 51.7174 53.2973 50.9735 53.3647 50.4916C53.4593 49.7913 54.8279 48.6115 54.4624 48.1402C53.6143 47.0679 52.6633 44.3457 50.8522 43.4399C48.5502 42.2849 46.0565 43.0643 42.8512 42.4986C40.8846 42.1538 39.9536 40.3185 38.1424 40.4638C37.0246 40.5512 36.3829 41.829 34.8452 42.4986C33.3232 43.1624 31.334 42.9368 29.8239 43.2816C28.3256 43.6265 27.6048 44.6587 26.0545 44.5358C24.7626 44.4366 24.7548 43.2733 23.2332 43.1269C22.6385 43.0679 21.513 43.4954 20.5662 43.5981C18.14 43.8509 13.7611 43.9737 11.3034 43.4399C9.05733 42.9533 7.66984 42.24 5.1844 41.0897C3.31773 40.2264 -0.145936 39.1623 0.00476067 37.7971C0.0995081 36.9184 3.28673 35.989 4.55464 35.6052C6.5997 34.984 7.86015 33.979 9.42141 33.8798C10.0235 33.8443 10.8159 34.2518 11.6172 34.1963C12.422 34.1372 13.4122 33.3979 14.443 33.255C16.6342 32.9503 19.7252 33.366 19.4638 31.2178C17.7999 29.9033 11.0105 32.1898 10.8321 29.3377C10.7249 27.6122 13.408 27.0903 15.3861 26.6745C17.1854 26.2943 19.9161 25.653 21.5051 25.7333C23.297 25.8242 25.6543 27.826 26.6847 25.5774C27.1838 23.9807 26.0744 22.6391 25.7413 21.3447C27.0738 19.5082 29.526 19.7374 31.3926 19.4658C33.5251 19.1516 35.2651 18.7725 37.3573 17.8986C39.1927 17.1298 41.142 16.616 43.3184 16.3314C45.4507 16.0551 47.5193 15.2508 49.4415 15.0772C51.0226 14.9343 52.4735 15.0607 53.9904 14.7642C55.3342 14.5032 56.7536 13.7592 58.2322 13.8265C59.2187 13.8702 60.0632 14.5906 61.0533 14.7642C61.9842 14.9272 63.0512 14.717 64.0377 14.9225C64.7947 15.0807 65.476 15.5909 66.2331 15.7054C67.423 15.8838 68.6982 15.5401 69.8432 15.7054C70.8983 15.8566 71.7937 16.5133 72.824 16.6444C75.2417 16.9561 78.0073 16.5168 80.3576 16.9597C81.2495 17.1262 82.0539 17.5655 83.025 17.7439C83.9453 17.9104 84.9554 17.7203 85.8509 17.8986C87.0988 18.1478 88.1421 19.3264 89.461 19.4658C91.8906 19.7185 94.6171 18.4123 97.1496 18.2103C98.9842 18.0686 100.876 18.286 102.801 17.8986C104.553 17.5455 106.249 16.8687 107.823 16.8026C108.679 16.766 109.396 17.0636 110.176 16.9597C110.989 16.8498 111.965 15.8767 112.844 16.0185C114.012 16.2051 113.807 17.6801 115.044 18.0568C116.411 17.3482 117.774 18.1041 119.28 18.0568C120.747 18.0049 122.058 17.3328 123.675 17.5856C126.532 18.0332 130.524 20.8262 132.775 19.3098C133.342 18.9272 133.207 18.2658 133.718 17.2726C134.412 15.9239 135.778 14.3367 135.446 12.4141C132.3 12.4648 129.295 14.0001 125.712 14.1383C122.094 11.8755 126.68 10.4713 129.322 9.43794C131.502 8.58408 133.227 6.68743 135.918 6.30479C138.113 5.98828 140.526 6.7878 143.135 7.08778C144.656 7.26256 146.178 6.98149 147.058 7.24249C148.599 7.70544 149.392 9.22891 150.668 9.59266C151.219 9.75091 152.123 9.73434 152.865 9.90912C154.275 10.2339 155.539 10.9779 156.946 9.90912C158.052 10.1063 158.182 11.2814 159.301 11.4763C160.343 10.9142 161.147 9.48516 162.752 9.12614C163.45 8.96789 164.182 9.24424 164.948 9.12614C166.228 8.92065 167.932 7.19053 168.716 8.80967C168.396 9.94106 166.683 10.1111 165.732 11.0051C164.889 11.7999 163.589 13.6246 163.695 14.4524C163.882 15.9464 166.125 15.3689 166.204 17.2726C165.87 18.3686 164.595 17.8785 163.537 18.3686C162.57 18.8162 162.209 19.7421 161.183 19.9358C158.33 20.4731 155.963 19.2201 153.494 19.3098C153.379 20.3786 154.715 21.001 155.376 21.3447C157.615 22.5198 159.439 22.3568 162.594 22.2871C164.211 22.2505 166.069 22.769 167.46 21.8147C168.34 21.2136 168.293 19.8885 169.03 19.1516C169.917 18.2706 171.962 17.3718 173.267 17.5856C173.98 17.7049 174.982 18.5517 174.994 19.1516C175.019 20.5771 172.977 20.1212 172.953 21.6612C174.282 22.456 177.789 20.7908 177.975 19.4658C178.109 18.4997 176.833 17.9411 176.877 16.9597C176.953 15.3181 179.187 15.3464 178.919 13.6682C177.84 12.8215 176.715 13.8501 175.621 13.6682C174.078 13.4108 172.692 11.5673 172.009 10.3756C172.692 9.53359 174.118 10.0946 175.149 10.2221C176.302 8.62661 178.45 8.00541 181.427 7.71252C182.485 7.60978 183.895 7.1905 184.411 8.18371C184.665 9.66822 182.212 10.5587 182.682 12.2593C184.795 12.7861 185.488 9.94106 187.236 8.80967C188.005 8.31011 189.107 7.97821 190.216 7.55896C191.184 7.19049 192.251 6.27999 193.042 6.30479C193.91 6.32841 194.065 7.04052 194.925 7.40073C195.697 7.72432 196.709 7.17869 196.967 8.18371C195.147 11.3299 188.366 9.52059 186.606 12.7258C186.999 14.8752 185.544 16.9243 186.764 18.3686C187.637 19.3984 189.602 18.6969 190.059 19.7775C190.673 21.2219 188.156 21.2219 188.806 22.9119C190.467 23.9051 192.445 21.9659 193.982 21.19C195.63 20.355 197.715 19.3701 197.905 17.4273C197.077 15.8365 193.986 17.0672 193.514 15.3937C193.257 14.4832 194.461 12.4447 194.767 12.1011C196.404 10.2693 202.118 7.6617 206.224 8.02663C207.004 8.09631 207.793 8.5711 208.578 8.65495C211.277 8.93131 214.464 7.49168 216.583 8.65495C218.288 7.66174 220.333 8.78955 222.702 8.49666C224.53 9.57255 224.026 11.8637 226.786 12.8841C227.534 13.1616 228.47 12.9644 229.453 13.197C230.182 13.3718 230.97 14.2257 231.806 14.6095C232.996 15.148 233.906 15.0252 234.161 15.8602C234.41 16.6798 233.296 17.21 233.375 18.0568C234.053 18.6142 233.486 19.4528 233.847 20.2487C234.525 21.7002 236.233 21.5939 237.925 22.2871C239.115 22.7725 241.651 24.2641 241.536 25.4203C241.46 26.1962 239.154 27.5567 238.398 27.9287C237.862 28.1897 235.215 29.4676 234.319 29.3377C232.837 29.1204 232.259 26.1242 230.237 26.2033C229.357 26.2387 228.529 26.769 228.509 27.9287C228.477 29.986 230.816 30.0651 230.863 31.8461C230.927 33.9754 229.698 34.1219 227.883 35.4469C226.583 34.9202 225.489 34.1809 223.801 34.038C222.798 35.2296 225.45 35.656 224.585 37.1723C222.065 37.7062 220.143 36.4602 217.84 35.7635C217.119 35.5462 216.081 35.6323 215.486 35.2922C214.594 34.7785 214.332 33.255 213.6 32.4708C212.752 31.5614 211.059 30.2707 209.675 30.2789C207.738 30.2837 204.932 32.6893 203.398 30.4336C204.461 26.8446 209.493 29.5078 212.815 28.2417C214.051 27.7705 214.475 26.4643 215.486 25.8904C217.515 24.7353 220.813 24.5735 220.507 22.2871C220.353 21.1345 218.74 21.151 217.84 20.5617C216.612 19.7622 215.673 16.9408 213.917 16.8026C213.013 16.7306 212.363 17.4946 211.404 17.5856C209.375 17.7757 207.116 16.7707 205.285 17.5856C204.433 18.0721 205.008 18.8516 204.342 19.7775C203.795 20.5369 202.503 20.7507 201.988 21.503C201.385 22.3852 201.508 23.4811 200.731 24.1661C199.442 25.3057 196.717 25.4876 195.084 26.0451C194.355 26.2943 193.435 27.1493 192.73 27.1457C191.433 27.1375 190.878 25.405 189.432 26.0451C189.305 27.7233 191.207 28.4035 192.413 29.1794C193.716 30.0179 195.087 30.8529 195.552 32.3126C194.274 35.0194 192.239 32.1709 190.216 32.1591C187.99 32.1425 184.739 36.3929 182.841 32.9421C183.313 31.1139 185.33 30.8293 185.822 29.0247C183.606 29.4014 181.676 31.265 179.072 31.8461C177.978 32.087 176.912 32.028 175.933 32.3126C174.055 32.8629 172.744 34.2482 170.758 34.9804C169.981 35.265 169.053 35.1777 168.246 35.4469C166.351 36.0799 164.08 37.2114 162.127 38.2683C160.129 39.3489 157.873 40.4838 156.633 41.5597C155.963 42.1372 154.219 44.1957 154.278 44.8488C154.358 45.783 156.118 46.0912 156.161 47.0443C156.121 47.6218 155.143 48.8689 155.848 49.7074C156.49 50.4715 157.778 49.8539 159.142 50.0204C161.54 50.3168 163.108 52.2949 164.948 53.313C166.339 54.0794 168.404 54.9935 169.974 55.1919C172.129 55.4612 174.543 54.5625 174.835 56.2879C175.122 57.946 172.807 58.5389 172.64 59.5805C173.801 61.1111 171.851 61.8433 171.856 63.1849C171.859 64.2726 173.195 65.9036 174.365 66.0016C175.946 66.1362 178.26 64.4474 178.919 62.8684C179.699 60.9883 179.366 58.4409 180.801 57.0709C188.112 57.2729 194.299 53.7558 193.827 46.2613C193.78 45.5208 193.36 44.5677 193.514 43.7529C193.743 42.5412 195.829 41.5243 195.552 39.9938C197.601 39.3643 197.513 36.0835 199.633 35.6052C201.41 35.206 203.418 36.8594 205.752 36.7012C206.514 36.6504 207.5 35.9689 208.265 36.0764C209.798 36.289 210.722 38.1774 211.876 39.0525C212.894 39.8308 213.968 39.5828 214.229 40.6185C213.924 42.3758 212.688 42.4184 212.815 44.0647C212.931 45.5007 214.423 46.5896 215.17 46.7325C216.315 46.9451 217.951 46.3322 219.092 45.7901C221.193 44.7969 222.992 41.8054 224.744 42.1857C226.127 42.4868 227.209 46.8742 227.411 48.4532C227.629 50.1467 227.182 51.4411 227.256 53C227.459 55.6431 230.792 55.3738 232.432 56.7591C232.928 57.1784 233.122 58.2507 233.534 58.7963C234.331 59.8569 235.294 59.8569 235.417 60.9883C235.71 63.6951 232.96 63.9242 233.217 66.944C232.65 68.1144 231.22 68.0447 231.335 69.6071C231.517 72.0801 235.076 70.1847 236.043 72.1156C236.565 73.1525 235.956 73.9237 235.572 75.4035C236.788 76.8514 236.78 79.1626 234.631 79.1661C233.328 79.1661 232.968 77.7654 231.647 77.4418Z" fill="#E6E8EA"/>
<path d="M334.762 59.5804C334.943 58.6853 334.242 57.5739 333.346 57.0708C332.832 56.7827 332.043 56.9173 331.464 56.6008C329.934 55.7611 329.379 54.012 328.485 53.6247C328.598 51.9075 328.012 50.6651 328.485 49.5491C328.769 48.8724 330.829 46.9616 331.936 46.5742C333.307 46.0912 334.742 46.5222 335.546 45.4782C335.907 45.4262 336.148 45.5007 336.331 45.6318C336.324 46.6214 335.491 46.7832 335.388 47.6701C335.582 49.0944 338.094 48.2039 338.367 49.5491C338.13 51.0135 336.81 51.3017 336.799 52.3705C336.794 53.2999 338.701 55.0655 339.625 56.2879C340.313 57.1949 341.519 57.8668 342.137 58.7962C342.675 59.6076 342.795 60.5737 343.234 60.9882C344.059 61.7688 345.921 61.8987 346.061 63.0265C346.243 64.5217 344.198 65.1122 344.491 66.7857C342.335 68.4745 338.74 67.6006 335.229 68.0399C333.64 68.2418 331.888 69.8197 330.208 68.5111C329.819 67.4589 331.603 67.3159 331.778 66.318C331.655 65.3933 330.481 65.5232 330.208 64.7508C330.664 63.532 332.086 63.284 331.936 61.4594C332.812 60.5051 334.496 60.8665 334.762 59.5804Z" fill="#E6E8EA"/>
<path d="M322.991 55.8166C325.087 54.5388 328.748 55.5167 328.952 57.0709C329.106 58.2471 327.838 58.4172 327.382 59.734C326.974 60.9327 327.461 62.357 326.915 63.1849C326.435 63.9006 325.13 63.8568 324.243 64.1226C322.27 64.7119 318.457 67.0266 316.868 64.4344C317.097 63.0467 318.446 62.7692 318.908 61.6177C318.937 60.7119 317.97 60.2336 318.124 59.2675C318.314 58.0842 319.206 58.4916 320.478 58.0133C321.402 57.6614 321.798 56.5453 322.991 55.8166Z" fill="#E6E8EA"/>
<path d="M566.874 186.655C568.226 187.098 572.736 192.571 571.426 195.591C571.052 196.449 569.498 197.553 567.973 197.311C564.866 196.82 565.459 189.917 566.403 187.127C566.491 186.901 566.653 186.743 566.874 186.655Z" fill="#E6E8EA"/>
<path d="M462.509 265.948C462.647 264.686 463.548 262.616 464.549 261.868C465.997 260.796 467.954 260.907 469.416 260.146C470.621 259.518 472.291 258.477 473.182 257.326C473.939 256.348 473.979 255.233 474.597 254.504C475.017 254.001 475.968 253.867 476.475 253.254C476.932 252.7 476.832 251.671 477.578 251.062C479.756 250.131 480.382 254.117 480.719 256.855C480.819 257.71 481.262 258.624 481.183 259.048C480.957 260.297 479.578 260.555 479.146 261.406C479.04 264.839 477.689 267.824 476.475 270.644C475.433 273.083 474.827 275.753 473.967 277.854C473.654 278.618 472.996 279.214 472.714 279.888C471.58 282.555 471.164 286.742 469.101 287.882C468.359 288.288 465.493 288.988 464.706 288.978C462.783 288.949 461.118 287.509 460.627 285.847C460.361 284.956 460.622 284.027 460.469 283.025C460.278 281.768 459.528 280.695 459.683 279.263C460.033 276.074 463.143 274.526 463.294 271.899C463.409 269.92 462.29 267.954 462.509 265.948Z" fill="#E6E8EA"/>
<path d="M655.393 299.945C655.381 298.561 654.513 297.341 654.29 295.875C654.211 295.344 654.369 294.659 654.29 293.99C654.187 293.02 653.707 292.214 653.819 291.64C654.037 290.603 655.25 290.492 655.55 289.602C656.042 288.141 654.948 287.908 654.921 286.155C654.901 284.917 655.861 284.315 656.493 282.709C656.784 281.965 656.796 280.576 657.116 280.046C657.524 279.379 659.261 278.812 659.942 278.483C662.348 277.303 664.277 275.113 666.695 274.72C667.305 274.621 668.137 274.796 668.578 274.72C670.001 274.471 671.787 273.28 673.757 272.841C675.66 272.41 677.344 272.571 678.778 271.74C680.352 270.835 682.58 268.46 683.17 267.041C683.887 265.319 683.676 263.867 685.053 263.282C685.73 262.997 686.392 263.305 687.093 263.126C687.82 262.937 689.38 262.196 689.919 261.714C691.013 260.737 691.192 259.134 692.429 258.11C693.288 257.405 694.9 256.316 696.042 255.763C696.711 255.427 697.956 255.078 698.547 255.133C700.763 255.323 701.792 258.406 704.199 257.796C705.059 257.58 705.935 255.755 706.715 254.663C707.846 253.065 708.669 250.912 710.635 250.434C712.223 250.045 714 251.043 714.872 249.649C715.069 248.66 714.13 248.07 714.872 247.454C716.703 247.568 719.794 250.033 722.56 250.116C724.051 250.163 726.816 248.494 727.113 250.745C727.245 251.742 725.997 252.546 725.702 253.567C725.493 254.286 726.012 254.675 725.545 255.447C724.267 255.949 722.916 256.213 722.877 257.639C722.829 259.427 725.41 260.265 726.955 261.247C728.017 261.916 728.901 262.94 729.468 263.282C729.951 263.565 730.716 263.701 731.037 263.906C732.056 264.566 732.777 266.063 734.18 266.103C735.773 266.142 737.366 264.112 738.257 262.181C739.3 259.925 739.359 257.186 739.823 254.817C739.982 254.026 740.545 253.254 740.767 252.467C741.373 250.325 742.194 247.43 744.06 246.67C745.934 248.651 746.574 252.506 746.263 255.763C747.515 256.713 749.72 256.396 750.024 258.584C750.132 259.339 749.649 260.306 749.712 261.085C749.818 262.406 750.801 263.562 750.972 264.691C751.285 266.779 750.623 268.5 751.594 270.019C752.819 271.935 755.22 271.871 756.775 273.941C756.746 275.226 757.257 275.746 757.558 276.753C757.706 277.233 757.566 278.013 757.717 278.325C758.22 279.373 759.579 279.477 760.071 280.359C760.314 280.793 760.245 281.614 760.542 282.396C760.971 283.547 762.005 284.406 762.739 285.53C763.447 286.619 764.609 287.803 764.779 288.668C765.093 290.227 763.958 291.298 763.678 292.582C763.341 294.141 763.678 296.151 763.056 297.754C762.327 299.636 760.53 301.493 759.129 303.863C757.978 305.813 756.413 308.01 754.733 309.347C753.742 310.139 752.565 310.597 751.594 311.389C750.092 312.61 748.859 314.199 747.515 315.618C746.102 317.11 744.389 318.25 743.275 319.531C741.662 321.396 740.862 324.403 738.1 324.704C736.483 324.882 735.033 324.743 733.546 325.333C731.222 326.254 729.681 327.952 728.529 327.996C727.315 328.034 726.194 326.575 725.073 326.428C723.817 326.266 722.829 327.379 720.994 327.367C720.244 327.363 719.869 326.924 718.799 326.583C716.556 325.875 714.09 325.904 713.778 323.453C713.599 322.116 714.629 321.515 714.558 320.315C714.491 319.12 713.317 318.82 712.83 317.81C713.139 316.731 713.19 315.369 712.045 314.673C712.007 313.699 712.255 313.004 712.675 312.482C711.764 312.869 710.563 313.11 709.534 313.739C708.391 314.427 707.566 316.009 706.244 315.773C705.002 315.339 705.955 314.107 705.772 313.11C705.634 312.351 703.897 309.109 703.1 308.567C702.194 307.946 698.872 306.7 697.766 306.525C692.915 305.769 689.825 308.358 685.992 308.726C685.009 308.817 683.939 308.561 683.015 308.726C679.86 309.277 676.345 311.777 674.38 313.423C671.134 313.743 667.845 312.758 664.491 313.739C661.166 314.708 659.261 317.475 654.14 316.711C653.125 315.841 651.322 315.409 651.314 313.893C651.302 312.698 653.085 311.927 653.668 311.073C654.287 310.158 655.344 308.005 655.393 306.684C655.425 305.644 654.69 304.398 654.762 303.083C654.821 302.057 655.401 300.962 655.393 299.945Z" fill="#E6E8EA"/>
<path d="M716.595 106.275C717.234 108.155 717.671 110.006 718.169 111.759C716.437 113.908 713.016 113.112 710.48 114.264C709.288 114.806 708.958 116.785 707.809 117.085C706.886 117.327 706.172 116.286 705.3 116.302C703.046 116.346 701.943 120.069 699.178 119.124C697.596 120.065 699.24 123.674 697.296 123.978C695.912 124.196 695.151 122.412 694.311 121.316C693.295 119.986 691.846 119.257 691.806 118.181C691.762 117.065 694.057 115.198 694.782 114.422C695.674 113.469 697.425 111.692 698.547 111.443C700.64 110.984 702.763 111.645 704.357 110.976C705.732 110.39 705.812 108.229 706.553 107.685C707.183 107.221 707.9 107.348 708.439 107.059C709.894 106.271 711.468 103.561 710.635 100.791C710.111 99.0421 707.207 97.1266 709.069 94.9902C711.847 95.2878 715.514 98.0206 715.973 100.791C716.152 101.872 715.552 102.951 715.655 104.079C715.712 104.727 716.314 105.424 716.595 106.275Z" fill="#E6E8EA"/>
<path d="M717.226 89.1926C716.873 89.9922 716.163 89.8257 715.501 90.2886C714.86 90.741 714.098 92.177 713.307 92.327C712.045 92.5644 710.63 91.0929 709.377 91.3893C707.908 91.7377 708.768 92.8655 708.281 94.2071C706.993 93.9332 704.879 92.5018 704.828 91.0728C704.794 90.1752 705.961 89.6202 706.244 88.5679C706.708 86.7763 705.502 85.8741 704.828 84.1794C704.781 83.9266 704.978 83.9101 704.984 83.7093C706.517 83.3881 709.529 86.2732 712.99 86.8425C715.224 87.211 717.094 87.0125 717.226 89.1926Z" fill="#E6E8EA"/>
<path d="M700.434 76.0329C701.988 76.8513 705.752 78.7113 703.1 80.4214C701.495 79.8274 699.823 77.8008 700.434 76.0329Z" fill="#E6E8EA"/>
<path d="M640.95 219.561C641.441 219.629 643.177 222.039 643.149 222.699C643.094 223.803 641.435 223.743 640.95 225.204C640.213 227.456 641.284 230.007 640.011 231.162C639.299 231.593 638.01 231.463 636.873 231.472C634.027 229.472 631.772 227.091 629.338 224.42C628.455 223.45 627.377 222.608 626.827 221.598C626.01 220.102 625.719 218.457 624.789 217.056C623.965 215.826 622.455 214.947 621.647 213.61C620.992 212.51 620.929 211.065 620.238 210.005C619.59 209.021 618.496 208.597 617.722 207.809C617.223 207.294 616.937 206.492 616.471 205.93C614.498 203.572 610.703 202.341 610.51 198.879C611.313 197.961 612.142 199.223 613.645 199.508C614.618 199.691 615.769 199.429 616.471 199.663C617.896 200.141 618.879 202.364 620.393 203.579C621.241 204.26 622.347 204.73 623.214 205.459C624.147 206.238 624.828 207.353 625.57 207.809C626.592 208.434 628.007 208.845 629.338 209.693C631.153 210.844 634.392 212.043 634.832 214.397C634.939 214.979 634.558 215.968 634.672 216.427C634.89 217.25 635.932 217.607 636.556 218.307C637.328 219.181 637.487 220.487 638.596 220.661C639.702 220.969 639.753 219.407 640.95 219.561Z" fill="#E6E8EA"/>
<path d="M656.958 223.795C655.772 223.462 654.659 223.644 654.14 223.324C653.065 222.664 653.224 220.787 652.879 219.72C652.534 218.639 651.231 218.061 650.53 216.586C649.507 214.449 649.067 209.666 651.783 209.222C652.876 209.039 654.002 209.879 654.762 209.693C656.276 209.321 656.01 207.365 657.275 206.555C657.976 206.104 659.261 206.293 660.259 205.93C661.286 205.554 662.058 204.577 662.768 203.737C663.427 202.954 663.941 201.64 664.808 201.075C665.783 200.433 666.688 200.419 667.476 199.82C669.533 198.254 669.6 196.069 671.241 194.177C672.636 192.579 674.839 195.717 675.01 197C675.79 197.995 677.324 198.242 677.99 199.35C677.068 202.107 674.459 202.346 675.01 206.242C675.102 206.88 675.533 208.058 675.953 208.91C676.401 209.828 677.729 210.816 677.678 211.414C677.575 212.585 675.212 212.534 674.693 213.764C674.217 214.903 674.728 214.979 674.539 216.74C673.877 218.018 672.105 218.326 671.554 219.878C670.892 221.741 671.652 224.151 670.144 225.521C669.101 225.465 667.959 226.422 666.695 226.299C665.32 226.174 664.009 224.289 661.824 224.262C660.992 224.255 660.008 224.793 659.157 224.733C658.488 224.684 657.944 224.068 656.958 223.795Z" fill="#E6E8EA"/>
<path d="M646.804 220.308C650.795 220.308 650.795 226.494 646.804 226.494C642.809 226.494 642.809 220.308 646.804 220.308Z" fill="#E6E8EA"/>
<path d="M690.545 216.74C690.724 218.908 687.759 219.149 686.935 220.82C688.24 222.809 688.746 225.591 690.233 227.396C690.17 228.591 690.474 230.154 689.761 230.687C686.603 231.293 684.902 225.623 683.638 223.64C681.223 224.092 683.428 231.805 680.189 230.847C678.601 230.376 680.209 228.172 679.872 226.462C679.58 224.958 678.105 224.65 677.99 223.479C677.899 222.513 679.057 221.489 679.401 220.503C679.9 219.082 679.583 216.348 681.283 216.276C682.124 216.238 683.25 218.038 683.796 218.152C685.672 218.556 687.898 216.245 690.545 216.74Z" fill="#E6E8EA"/>
<path d="M693.217 241.348C695.012 240.37 696.974 238.226 700.12 239.306C699.432 241.257 697.065 241.217 695.571 242.128C694.057 243.049 692.777 244.611 690.862 244.791C690.715 244.513 690.511 244.303 690.233 244.161C690.224 242.412 691.973 242.013 693.217 241.348Z" fill="#E6E8EA"/>
<path d="M681.754 243.848C681.573 244.081 681.362 244.291 681.133 244.478C679.939 244.097 678.667 243.809 678.307 242.598C679.187 241.308 681.716 242.376 681.754 243.848Z" fill="#E6E8EA"/>
<path d="M684.738 240.089C684.161 241.277 680.934 240.707 680.662 239.618C681.211 238.384 684.47 238.756 684.738 240.089Z" fill="#E6E8EA"/>
<path d="M677.518 239.931C676.722 241.059 673.96 239.84 672.969 241.027C671.335 240.987 669.692 240.967 669.359 239.618C669.83 238.471 671.318 239.259 672.497 239.148C674.392 238.977 677.015 237.648 677.518 239.931Z" fill="#E6E8EA"/>
<path d="M761.953 240.247C763.087 240.568 768.128 244.129 766.503 245.728C765.624 246.609 764.489 245.261 763.056 244.948C761.134 244.529 759.66 245.039 758.347 244.007C756.853 242.84 756.493 240.296 754.891 238.836C754.083 238.099 751.943 237.111 750.501 237.268C748.007 237.537 748.031 240.39 745.792 241.656C743.649 241.426 742.38 242.047 740.767 241.497C739.071 240.921 738.219 238.725 736.684 238.526C735.092 238.309 731.315 241.09 730.723 238.68C730.245 236.729 733.357 236.088 733.546 234.764C733.748 233.402 732.325 231.286 731.663 230.687C731.006 230.094 730.082 230.046 729.309 229.593C728.509 229.113 727.887 228.195 726.955 227.712C723.669 225.999 718.648 226.696 717.384 223.95C717.159 223.462 717.507 222.928 717.226 222.229C716.885 221.369 715.621 221.092 715.184 220.348C714.07 218.437 714.852 215.615 716.754 215.331C718.47 215.078 721.854 217.191 722.247 218.469C722.458 219.137 722.104 219.888 722.247 220.661C722.426 221.588 723.812 223.849 725.073 223.95C726.698 224.083 727.656 221.58 729.15 220.661C730.185 220.028 731.877 219.3 733.236 219.406C734.568 219.509 735.464 220.558 736.997 221.128C738.095 221.539 739.462 221.702 740.767 222.07C741.904 222.39 742.891 223.059 744.06 223.479C747.797 224.832 752.243 225.623 754.261 228.024C754.812 228.682 754.799 229.652 755.521 230.376C756.183 231.044 759.814 231.697 759.913 233.197C759.992 234.337 758.418 234.403 758.347 235.546C758.2 237.83 761.407 237.695 761.953 240.247Z" fill="#E6E8EA"/>
<path d="M769.642 229.593C770.146 229.457 770.13 229.837 770.43 229.903C770.24 232.144 768.897 233.608 766.032 233.355C764.752 233.236 762.516 232.278 762.425 231.633C762.105 229.381 768.207 230.768 769.642 229.593Z" fill="#E6E8EA"/>
<path d="M711.424 248.24C711.582 249.543 709.306 249.392 709.069 248.549C709.114 247.54 711.142 247.224 711.424 248.24Z" fill="#E6E8EA"/>
<path d="M728.838 334.105C728.369 336.06 726.875 338.233 724.914 339.589C723.5 340.574 718.996 342.562 718.482 339.749C718.339 338.964 719.358 335.328 719.733 334.576C720.844 332.38 722.028 333.816 723.817 334.105C725.65 334.401 727.375 332.998 728.838 334.105Z" fill="#E6E8EA"/>
<path d="M812.016 325.017C812.952 324.941 814.212 324.105 815 324.862C814.43 326.214 813.407 327.524 812.016 328.155C811.363 328.444 810.505 328.337 809.82 328.625C808.517 329.16 807.827 330.517 806.687 331.446C805.604 332.32 804.182 333.069 803.071 333.798C802.005 334.49 800.456 335.909 799.147 334.889C799.25 333.056 801.205 333.076 801.666 331.596C801.657 330.5 800.686 330.377 800.722 329.246C802.897 327.343 806.318 325.975 806.837 322.041C807.075 320.3 805.655 316.56 807.78 316.398C810.28 316.209 808.869 318.911 809.04 320.315C809.103 320.886 809.69 321.273 809.974 322.041C810.494 323.414 810.451 324.664 812.016 325.017Z" fill="#E6E8EA"/>
<path d="M796.793 334.418C795.922 337.033 792.106 338.402 789.573 340.06C788.799 340.572 788.165 341.73 787.219 342.094C785.995 342.582 784.604 342.422 783.299 343.035C781.226 344.008 779.669 345.912 777.806 347.111C775.982 348.282 773.317 349.929 771.211 350.087C768.89 350.264 764.6 348.772 767.448 346.641C768.679 345.722 771.295 344.641 772.626 343.981C777.089 341.742 783.367 340.239 787.063 337.552C789.153 336.035 791.043 334.426 793.029 333.167C794.019 332.534 795.691 334.232 796.793 334.418Z" fill="#E6E8EA"/>
<path d="M652.725 234.605C653.582 234.486 654.219 233.855 655.079 233.827C656.907 233.754 658.718 235.175 660.881 234.918C661.353 235.424 661.031 235.844 661.044 236.647C662.879 237.625 665.891 237.445 666.845 239.306C665.471 240.761 663.429 239.717 661.665 239.461C660.073 239.235 658.377 239.346 656.644 239.148C654.45 238.894 652.463 237.684 650.371 237.427C649.099 237.268 647.799 237.608 646.602 237.427C645.19 237.209 639.928 235.226 639.853 233.827C639.776 232.381 642.223 231.974 644.403 232.255C647.224 232.623 649.107 235.108 652.725 234.605Z" fill="#E6E8EA"/>
<path d="M688.98 211.885C690.822 211.89 692.558 211.319 693.839 212.043C693.6 215.96 687.514 212.982 683.487 213.61C682.627 213.741 682.374 214.405 681.442 214.077C681.494 212.752 682.928 211.411 684.424 211.26C685.575 211.141 687.294 211.881 688.98 211.885Z" fill="#E6E8EA"/>
</svg>
